name analog
datacolumns 19
datarows 37
range 0.6195 0.6375000000000001
endheader
time	ground_force_vx	ground_force_vy	ground_force_vz	ground_force_px	ground_force_py	ground_force_pz	l_ground_force_vx	l_ground_force_vy	l_ground_force_vz	l_ground_force_px	l_ground_force_py	l_ground_force_pz	ground_torque_x	ground_torque_y	ground_torque_z	l_ground_torque_x	l_ground_torque_y	l_ground_torque_z
0.6195	-0.0	-0.0	-0.0	4.594743251800537	29.51131629943848	-333.0124206542969	10.48577880859375	-46.94277572631836	-444.4700317382813	-0.0	-0.0	-0.0	-0.0	-0.0	-0.0	91803.7890625	9947.8349609375	-2042.3717041015625
0.62	-0.0	-0.0	-0.0	3.943819999694824	29.53805351257324	-335.23651123046875	10.414666175842283	-47.04013442993164	-444.8540649414063	-0.0	-0.0	-0.0	-0.0	-0.0	-0.0	91684.1640625	9472.8857421875	-2006.8597412109373
0.6205	-0.0	-0.0	-0.0	3.648235559463501	30.5185661315918	-338.7304992675781	10.130626678466797	-47.02254104614258	-445.063720703125	-0.0	-0.0	-0.0	-0.0	-0.0	-0.0	91881.34375	9416.48828125	-2027.8990478515625
0.621	-0.0	-0.0	-0.0	3.2476465702056885	31.1861515045166	-342.50933837890625	10.52095890045166	-46.5364875793457	-444.6459655761719	-0.0	-0.0	-0.0	-0.0	-0.0	-0.0	91807.8515625	9699.490234375	-2202.279541015625
0.6215	-0.0	-0.0	-0.0	2.391719102859497	31.549972534179688	-346.53668212890625	10.192578315734863	-46.5455322265625	-445.3448181152344	-0.0	-0.0	-0.0	-0.0	-0.0	-0.0	91822.4296875	9600.4716796875	-2190.845703125
0.622	-0.0	-0.0	-0.0	2.177252769470215	32.467369079589844	-351.9105529785156	9.820419311523438	-46.97001647949219	-444.5742492675781	-0.0	-0.0	-0.0	-0.0	-0.0	-0.0	91838.53125	9177.736328125	-2208.938720703125
0.6225	-0.0	-0.0	-0.0	1.143082618713379	33.07718276977539	-353.5990295410156	10.290451049804688	-46.79352569580078	-444.8561401367188	-0.0	-0.0	-0.0	-0.0	-0.0	-0.0	91677.265625	9128.162109375	-2238.2109375
0.623	-0.0	-0.0	-0.0	0.8293383121490479	34.03794479370117	-356.64617919921875	10.086612701416016	-46.891357421875	-443.5265197753906	-0.0	-0.0	-0.0	-0.0	-0.0	-0.0	91740.71875	9116.4951171875	-2309.6982421875
0.6235	-0.0	-0.0	-0.0	0.7829030156135559	34.63535690307617	-361.1194152832031	9.7222318649292	-46.52880096435547	-444.5361328125	-0.0	-0.0	-0.0	-0.0	-0.0	-0.0	91953.2734375	8975.4189453125	-2339.54248046875
0.624	-0.0	-0.0	-0.0	-0.3304759860038757	35.0080451965332	-363.23773193359375	9.988286972045898	-45.82238006591797	-444.5355224609375	-0.0	-0.0	-0.0	-0.0	-0.0	-0.0	92039.1171875	8966.578125	-2339.186767578125
0.6245	-0.0	-0.0	-0.0	-0.4987514615058899	35.73114013671875	-366.99420166015625	10.139352798461914	-44.99845504760742	-445.7630310058594	-0.0	-0.0	-0.0	-0.0	-0.0	-0.0	92165.640625	8910.6943359375	-2199.357421875
0.625	-0.0	-0.0	-0.0	-0.8292052149772644	36.16640472412109	-367.68310546875	10.602583885192873	-43.82391357421875	-444.1466979980469	-0.0	-0.0	-0.0	-0.0	-0.0	-0.0	92351.328125	8750.55859375	-2148.190673828125
0.6255000000000001	-0.0	-0.0	-0.0	-1.464035153388977	37.24065017700195	-374.4747314453125	11.05262851715088	-43.35601806640625	-444.7158508300781	-0.0	-0.0	-0.0	-0.0	-0.0	-0.0	92450.53125	8810.0615234375	-2115.968994140625
0.626	-0.0	-0.0	-0.0	-1.5900018215179443	38.17403793334961	-376.9883117675781	11.594889640808104	-42.78380584716797	-444.8191528320313	-0.0	-0.0	-0.0	-0.0	-0.0	-0.0	92391.9609375	8460.673828125	-2028.54443359375
0.6265000000000001	-0.0	-0.0	-0.0	-2.11484169960022	39.03911590576172	-380.2291259765625	11.824719429016112	-42.3944091796875	-442.5812377929688	-0.0	-0.0	-0.0	-0.0	-0.0	-0.0	92232.34375	8445.0068359375	-1989.84912109375
0.627	-0.0	-0.0	-0.0	-2.365903377532959	39.72601318359375	-381.64154052734375	12.40363597869873	-41.89051055908203	-442.0259399414063	-0.0	-0.0	-0.0	-0.0	-0.0	-0.0	92103.4375	8435.8505859375	-1835.680908203125
0.6275000000000001	-0.0	-0.0	-0.0	-3.0392935276031494	40.23931121826172	-385.508056640625	12.63884162902832	-41.28253173828125	-442.1287841796875	-0.0	-0.0	-0.0	-0.0	-0.0	-0.0	92011.5546875	8448.8681640625	-1742.939697265625
0.628	-0.0	-0.0	-0.0	-2.970057487487793	41.19346618652344	-383.863525390625	13.014399528503418	-40.84100341796875	-440.4240112304688	-0.0	-0.0	-0.0	-0.0	-0.0	-0.0	91780.1484375	8209.1318359375	-1506.9921875
0.6285000000000001	-0.0	-0.0	-0.0	-3.0372393131256104	41.2083740234375	-387.0255432128906	13.995163917541504	-40.33708190917969	-439.1302185058594	-0.0	-0.0	-0.0	-0.0	-0.0	-0.0	91638.6953125	8023.515625	-1427.7008056640625
0.629	-0.0	-0.0	-0.0	-2.917908906936645	41.15607070922852	-388.100830078125	14.62660789489746	-39.729488372802734	-437.5893859863281	-0.0	-0.0	-0.0	-0.0	-0.0	-0.0	91647.125	7890.54443359375	-1249.14697265625
0.6295000000000001	-0.0	-0.0	-0.0	-2.724682331085205	41.750186920166016	-389.91064453125	15.52438735961914	-39.31385803222656	-436.6864013671875	-0.0	-0.0	-0.0	-0.0	-0.0	-0.0	91417.5703125	7782.552734375	-998.8326416015624
0.63	-0.0	-0.0	-0.0	-2.9439468383789062	41.76154708862305	-390.8226623535156	16.19725799560547	-38.61822128295898	-434.2424926757813	-0.0	-0.0	-0.0	-0.0	-0.0	-0.0	91011.8828125	7753.91650390625	-925.1431884765624
0.6305000000000001	-0.0	-0.0	-0.0	-3.226100444793701	42.26232147216797	-391.72174072265625	16.17127227783203	-38.20655822753906	-432.6143798828125	-0.0	-0.0	-0.0	-0.0	-0.0	-0.0	90770.5703125	7618.73095703125	-718.8041381835938
0.631	-0.0	-0.0	-0.0	-3.810141324996948	42.592864990234375	-393.44244384765625	16.10464096069336	-37.761138916015625	-430.76611328125	-0.0	-0.0	-0.0	-0.0	-0.0	-0.0	90546.5625	7515.22265625	-807.7230224609375
0.6315000000000001	-0.0	-0.0	-0.0	-4.051939964294434	43.047306060791016	-392.6902160644531	15.80168628692627	-37.34545516967773	-431.10052490234375	-0.0	-0.0	-0.0	-0.0	-0.0	-0.0	90268.0234375	7656.12255859375	-747.3167114257812
0.632	-0.0	-0.0	-0.0	-3.364166259765625	42.94915390014648	-392.6897277832031	15.853421211242676	-36.66473388671875	-430.05322265625	-0.0	-0.0	-0.0	-0.0	-0.0	-0.0	90080.8671875	7476.8271484375	-692.7140502929688
0.6325000000000001	-0.0	-0.0	-0.0	-3.659925937652588	42.94910430908203	-395.6080932617188	15.916366577148438	-36.4111328125	-428.612060546875	-0.0	-0.0	-0.0	-0.0	-0.0	-0.0	90184.7421875	7528.61669921875	-507.0454406738281
0.633	-0.0	-0.0	-0.0	-3.5049877166748047	43.228248596191406	-394.1648254394531	15.03215503692627	-35.5423698425293	-429.1524658203125	-0.0	-0.0	-0.0	-0.0	-0.0	-0.0	90184.1328125	7630.02587890625	-561.95361328125
0.6335000000000001	-0.0	-0.0	-0.0	-3.350515365600586	43.4836540222168	-396.1659851074219	15.321255683898926	-35.026580810546875	-428.2066650390625	-0.0	-0.0	-0.0	-0.0	-0.0	-0.0	90063.3125	7587.59912109375	-503.1412353515625
0.634	-0.0	-0.0	-0.0	-3.3642826080322266	43.16481018066406	-395.9147338867188	14.585891723632812	-34.77558898925781	-427.8576354980469	-0.0	-0.0	-0.0	-0.0	-0.0	-0.0	90104.71875	7828.48583984375	-617.5156860351562
0.6345000000000001	-0.0	-0.0	-0.0	-3.403501033782959	42.75693893432617	-397.2739562988281	14.004558563232422	-35.15203094482422	-429.0063781738281	-0.0	-0.0	-0.0	-0.0	-0.0	-0.0	89938.734375	7997.1962890625	-735.9180908203125
0.635	-0.0	-0.0	-0.0	-3.45357084274292	42.7180290222168	-397.3760986328125	13.281001091003418	-35.08921813964844	-427.0198974609375	-0.0	-0.0	-0.0	-0.0	-0.0	-0.0	89820.8515625	8254.052734375	-859.724365234375
0.6355000000000001	-0.0	-0.0	-0.0	-3.427975654602051	42.42607116699219	-397.1735229492188	12.533815383911133	-35.303192138671875	-426.7171020507813	-0.0	-0.0	-0.0	-0.0	-0.0	-0.0	89436.3359375	8272.103515625	-915.6500244140624
0.636	-0.0	-0.0	-0.0	-3.924635648727417	42.19732666015625	-398.2338562011719	12.216532707214355	-35.59364318847656	-426.710693359375	-0.0	-0.0	-0.0	-0.0	-0.0	-0.0	89527.3125	8678.5712890625	-945.57470703125
0.6365000000000001	-0.0	-0.0	-0.0	-3.709064483642578	42.50262069702149	-398.6390686035156	11.544560432434082	-35.619049072265625	-424.568359375	-0.0	-0.0	-0.0	-0.0	-0.0	-0.0	88886.0390625	8758.02734375	-1030.94677734375
0.637	-0.0	-0.0	-0.0	-4.562547206878662	42.909889221191406	-398.9421081542969	11.456914901733398	-35.92155838012695	-423.8180541992188	-0.0	-0.0	-0.0	-0.0	-0.0	-0.0	88647.296875	8943.453125	-1187.53759765625
0.6375000000000001	-0.0	-0.0	-0.0	-4.524186134338379	42.50251007080078	-400.3546142578125	11.608772277832031	-36.07365417480469	-421.8753356933594	-0.0	-0.0	-0.0	-0.0	-0.0	-0.0	88296.1640625	9026.22265625	-1136.3929443359375
